<?xml version="1.0" encoding="utf-8"?>
<!-- Generator: Adobe Illustrator 16.0.0, SVG Export Plug-In . SVG Version: 6.00 Build 0)  -->
<!DOCTYPE svg PUBLIC "-//W3C//DTD SVG 1.1//EN" "http://www.w3.org/Graphics/SVG/1.1/DTD/svg11.dtd">
<svg version="1.1" id="Layer_2" xmlns="http://www.w3.org/2000/svg" xmlns:xlink="http://www.w3.org/1999/xlink" x="0px" y="0px"
	 width="80px" height="80px" viewBox="0 0 80 80" enable-background="new 0 0 80 80" xml:space="preserve">
<path fill="none" stroke="#000000" stroke-miterlimit="10" d="M40,12.167c0,0-16.916,0.084-19.083,17.583
	c0,0-1.167,19.583,19.917,20.167c0,0,17.75-0.833,18.333-18.875C59.167,31.042,56.833,11.75,40,12.167z"/>
<path fill="none" stroke="#000000" stroke-miterlimit="10" d="M31.25,23.25v8.667l4.333,1.333v-1.333l-3.083-1.25l-0.167-6.083
	c0,0,10.583,1.916,12.333,0.083h0.417v2.5h1.333V23.25c0,0-5.529,1.221-7.256,1.129c-0.133-0.007-0.244-0.021-0.328-0.045
	C37.667,24,32.083,23.584,31.25,23.25z"/>
<polygon fill="none" stroke="#000000" stroke-miterlimit="10" points="31.667,33.25 31.667,34 35.333,35.334 35.333,34.292 "/>
<polygon fill="none" stroke="#000000" stroke-miterlimit="10" points="31.667,35.334 31.667,36.75 35.333,37.667 35.667,36.5 "/>
<path fill="none" stroke="#000000" stroke-miterlimit="10" d="M42.25,27.417c0,0-5.083,1.25-5.333,5.833
	c0,0,1.251,5.749,6.167,4.416L45.75,36.5L48,39l0.917-0.75l-2.5-2.5l1.25-1.458c0,0,0.75-4.625-1.25-5.125
	C46.417,29.167,44.833,27.667,42.25,27.417z"/>
</svg>
